PathFileType	4	(x/y/z)	S09_PSF_T07
DataRate	CameraRate	NumFrames	NumMarkers	Units	OrigDataRate	OrigDataStartFrame	OrigNumFrames
240	240	10	51	mm	240	400	456
Frame#	Time	Sternum			R.Acromium			L.Acromium			Top.Head			R.ASIS			L.ASIS			R.PSIS			L.PSIS			R.Great.Tro			L.Great.Tro			R.Iliac.Crest			L.Iliac.Crest			V.Sacral			R.Thigh.Upper.Post			R.Thigh.Lower.Ant			R.Thigh.Lower.Post			R.Thigh.Upper.Ant			R.Knee.Lat			R.Knee.Med			R.Shank.Upper.Post			R.Shank.Lower.Ant			R.Shank.Lower.Post			R.Shank.Upper.Ant			R.Ankle.Lat			R.Ankle.Med			R.Heel.Upper			R.Heel.Med			R.Heel.Lat			R.Toe.Lat			R.Toe.Med			R.Toe.Tip			L.Thigh.Upper.Post			L.Thigh.Lower.Ant			L.Thigh.Lower.Post			L.Thigh.Upper.Ant			L.Knee.Lat			L.Knee.Med			L.Shank.Upper.Post			L.Shank.Lower.Ant			L.Shank.Lower.Post			L.Shank.Upper.Ant			L.Ankle.Lat			L.Ankle.Med			L.Heel.Upper			L.Heel.Med			L.Heel.Lat			L.Toe.Lat			L.Toe.Med			L.Toe.Tip			Cervical.Spine			Back			
		X1	Y1	Z1	X2	Y2	Z2	X3	Y3	Z3	X4	Y4	Z4	X5	Y5	Z5	X6	Y6	Z6	X7	Y7	Z7	X8	Y8	Z8	X9	Y9	Z9	X10	Y10	Z10	X11	Y11	Z11	X12	Y12	Z12	X13	Y13	Z13	X14	Y14	Z14	X15	Y15	Z15	X16	Y16	Z16	X17	Y17	Z17	X18	Y18	Z18	X19	Y19	Z19	X20	Y20	Z20	X21	Y21	Z21	X22	Y22	Z22	X23	Y23	Z23	X24	Y24	Z24	X25	Y25	Z25	X26	Y26	Z26	X27	Y27	Z27	X28	Y28	Z28	X29	Y29	Z29	X30	Y30	Z30	X31	Y31	Z31	X32	Y32	Z32	X33	Y33	Z33	X34	Y34	Z34	X35	Y35	Z35	X36	Y36	Z36	X37	Y37	Z37	X38	Y38	Z38	X39	Y39	Z39	X40	Y40	Z40	X41	Y41	Z41	X42	Y42	Z42	X43	Y43	Z43	X44	Y44	Z44	X45	Y45	Z45	X46	Y46	Z46	X47	Y47	Z47	X48	Y48	Z48	X49	Y49	Z49	X50	Y50	Z50	X51	Y51	Z51	

400	1.6625	601.55	1181.5	313.03	455.15	1421.2	473.98	472.51	1434.8	158.89	503.64	1732.5	321.8	554.37	1014	414.19	542.18	1019	169.75	328.25	1031	347.49	332.89	1043.3	258.67	481.36	924.09	490.03	458.95	932.49	103.75	462.97	1088.1	462.93	438.9	1116	142.14	311.89	1002.8	296.47	566.96	685.73	477.9	671.68	618.31	442.59	595.75	598.07	454.04	637.11	699.71	466.29	672.76	539.81	440.69	679.18	527.32	315.48	654.27	354.45	444.86	738.66	320.14	448.53	678.69	281.95	437.61	708.91	387.63	455.66	772.09	112.99	434.33	809.58	138.82	353.38	732.53	71.045	368.11	761.71	48.451	343.53	740.34	41.69	403.96	876.49	87.198	491.72	937.27	120.07	401.79	962.31	149.42	454.93	356.56	689.53	165.01	420.53	580.64	163.14	356.28	599.91	183.18	421.29	667.14	139.69	389.74	503.85	176.09	417.53	515.94	307.54	313.42	380.66	172.05	357.44	280.47	188.37	298.12	305.92	182.94	372.28	356.57	178.48	276.57	108.86	215.34	290.54	101.77	308.64	201.21	76.449	266.63	211.89	49.89	298.59	200.38	49.548	237.78	372.78	42.82	181.82	411.52	37.828	290.87	462.58	52.177	231.3	389.34	1476.6	325.62	336.7	1212.3	295.59
401	1.6667	606.83	1180.5	313.18	460.37	1420.3	474.11	477.76	1433.8	159	508.85	1731.6	321.93	560.1	1012.8	414.28	547.09	1018.3	169.87	333.79	1030.1	348.19	338.12	1042.6	259.38	486.98	922.67	490.02	463.3	931.99	103.87	468.75	1086.9	463.34	443.88	1115.2	142.58	317.16	1002.1	297.18	570.97	683.91	477.6	675.24	615.86	442.2	599.17	596.11	453.64	641.2	697.46	465.94	676.45	538.29	440.29	682.26	525.4	314.52	662.38	353.01	444.98	747.68	320.65	448.25	688.52	281.01	437.77	716.37	387.51	455.27	786.32	113.93	434.48	822.7	140.47	353.29	747.41	70.712	368.78	777.01	48.781	344.01	756.16	41.643	404.58	891.75	90.892	491.36	951.15	125.04	400.92	975.75	155.2	453.8	359.86	689.63	165.41	423.17	580.36	163.1	359.11	599.97	183.44	424.34	666.89	139.78	392.03	503.65	176.14	420.43	515.5	307.41	315.13	380.85	172.14	358.65	280.4	188.33	299.44	306.17	183.05	373.88	356.43	178.43	276.87	109.13	215.47	290.92	101.97	308.74	201.33	76.616	266.8	212	50.005	298.72	200.47	49.766	237.91	372.82	42.778	181.85	411.63	37.723	290.84	462.72	51.899	231.25	394.56	1475.7	325.72	341.92	1211.3	295.84
402	1.6708	612.14	1179.6	313.34	465.6	1419.4	474.26	483	1432.8	159.12	514.04	1730.7	322.06	565.86	1011.7	414.36	552.01	1017.5	169.97	339.35	1029.2	348.9	343.37	1041.9	260.11	492.64	921.25	490.04	467.66	931.48	104	474.57	1085.8	463.75	448.89	1114.5	143.03	322.46	1001.4	297.92	575.05	682.13	477.34	678.88	613.45	441.85	602.67	594.18	453.27	645.35	695.24	465.63	680.23	536.83	439.93	685.37	523.51	313.59	670.4	351.71	445.15	756.53	321.2	447.95	698.15	280.21	437.93	723.75	387.44	454.89	800.1	114.99	434.58	835.34	142.15	353.13	761.79	70.54	369.42	791.75	49.24	344.44	771.43	41.774	405.15	906.48	94.603	490.91	964.47	129.92	399.94	988.67	160.86	452.55	363.22	689.7	165.81	425.86	580.05	163.08	362	600.02	183.71	427.44	666.62	139.87	394.38	503.44	176.2	423.38	515.04	307.29	316.9	381.03	172.23	359.9	280.33	188.3	300.81	306.43	183.16	375.53	356.28	178.39	277.19	109.4	215.59	291.31	102.19	308.84	201.46	76.798	266.96	212.12	50.136	298.85	200.56	49.994	238.04	372.86	42.735	181.89	411.75	37.619	290.8	462.87	51.615	231.19	399.78	1474.7	325.83	347.17	1210.3	296.13
403	1.675	617.46	1178.6	313.5	470.84	1418.5	474.42	488.24	1431.8	159.26	519.23	1729.8	322.19	571.62	1010.5	414.43	556.95	1016.7	170.08	344.93	1028.3	349.64	348.63	1041.2	260.87	498.36	919.82	490.08	472.05	930.95	104.14	480.41	1084.6	464.17	453.9	1113.7	143.5	327.78	1000.6	298.68	579.22	680.39	477.1	682.63	611.12	441.54	606.29	592.3	452.93	649.59	693.09	465.35	684.12	535.44	439.6	688.51	521.69	312.7	678.32	350.52	445.34	765.19	321.77	447.63	707.59	279.54	438.11	731.07	387.41	454.52	813.38	116.12	434.61	847.48	143.83	352.92	775.62	70.497	370.01	805.89	49.791	344.83	786.12	42.045	405.68	920.64	98.279	490.36	977.22	134.64	398.87	1001	166.33	451.18	366.65	689.75	166.22	428.61	579.72	163.07	364.96	600.05	183.98	430.61	666.33	139.97	396.81	503.22	176.26	426.39	514.55	307.18	318.73	381.2	172.31	361.19	280.25	188.27	302.24	306.69	183.26	377.25	356.12	178.36	277.52	109.69	215.71	291.7	102.41	308.94	201.59	76.997	267.12	212.24	50.288	298.98	200.65	50.236	238.17	372.91	42.69	181.92	411.86	37.518	290.77	463.02	51.326	231.14	405.01	1473.7	325.96	352.44	1209.3	296.44
404	1.6792	622.81	1177.6	313.67	476.1	1417.6	474.6	493.47	1430.7	159.41	524.41	1728.8	322.32	577.41	1009.3	414.49	561.91	1015.9	170.17	350.52	1027.4	350.4	353.91	1040.4	261.64	504.13	918.4	490.15	476.46	930.39	104.29	486.3	1083.4	464.58	458.93	1112.9	143.98	333.11	999.78	299.46	583.49	678.71	476.9	686.5	608.87	441.24	610.04	590.49	452.61	653.94	691.02	465.1	688.15	534.13	439.3	691.72	519.92	311.86	686.14	349.45	445.56	773.66	322.35	447.3	716.79	278.96	438.29	738.3	387.4	454.15	826.14	117.28	434.59	859.11	145.48	352.65	788.87	70.549	370.54	819.4	50.399	345.16	800.19	42.418	406.16	934.2	101.86	489.73	989.37	139.14	397.71	1012.9	171.56	449.71	370.15	689.77	166.64	431.42	579.37	163.07	367.98	600.05	184.26	433.83	666.02	140.07	399.31	502.99	176.32	429.46	514.05	307.08	320.64	381.37	172.4	362.54	280.16	188.25	303.73	306.95	183.37	379.02	355.94	178.35	277.87	109.99	215.82	292.1	102.65	309.03	201.73	77.218	267.27	212.35	50.463	299.1	200.74	50.494	238.3	372.96	42.645	181.95	411.98	37.418	290.72	463.17	51.032	231.08	410.25	1472.7	326.11	357.74	1208.2	296.78
405	1.6833	628.18	1176.6	313.85	481.37	1416.7	474.79	498.7	1429.7	159.56	529.58	1727.9	322.46	583.2	1008.1	414.55	566.88	1015	170.26	356.13	1026.4	351.18	359.21	1039.6	262.43	509.94	917.01	490.25	480.9	929.81	104.46	492.2	1082.2	464.99	463.97	1112.1	144.47	338.47	998.94	300.26	587.9	677.1	476.73	690.53	606.74	440.97	613.96	588.76	452.32	658.4	689.04	464.88	692.34	532.91	439.02	695.02	518.24	311.07	693.84	348.49	445.78	781.93	322.91	446.94	725.76	278.46	438.46	745.45	387.41	453.78	838.34	118.43	434.49	870.2	147.04	352.31	801.5	70.663	370.99	832.25	51.026	345.42	813.61	42.852	406.57	947.13	105.29	489.01	1000.9	143.39	396.46	1024.2	176.48	448.15	373.71	689.76	167.06	434.3	579	163.08	371.07	600.02	184.55	437.13	665.67	140.19	401.89	502.73	176.4	432.6	513.51	307	322.61	381.53	172.49	363.93	280.06	188.25	305.27	307.21	183.47	380.86	355.75	178.34	278.22	110.3	215.93	292.51	102.9	309.11	201.87	77.462	267.4	212.48	50.665	299.22	200.84	50.772	238.42	373.01	42.6	181.98	412.1	37.32	290.68	463.33	50.733	231.03	415.49	1471.7	326.27	363.06	1207.2	297.15
406	1.6875	633.57	1175.7	314.04	486.66	1415.8	475	503.93	1428.6	159.74	534.75	1726.9	322.6	589	1006.8	414.61	571.87	1014.2	170.34	361.75	1025.4	351.97	364.52	1038.8	263.24	515.8	915.65	490.38	485.37	929.2	104.64	498.14	1081	465.4	469.01	1111.3	144.97	343.84	998.08	301.09	592.46	675.57	476.59	694.73	604.74	440.71	618.06	587.12	452.05	663.01	687.18	464.68	696.7	531.78	438.75	698.43	516.64	310.34	701.41	347.61	446.01	789.98	323.43	446.57	734.47	278.03	438.62	752.51	387.41	453.42	849.96	119.54	434.32	880.73	148.5	351.9	813.48	70.806	371.36	844.41	51.637	345.59	826.33	43.309	406.89	959.41	108.52	488.21	1011.9	147.32	395.14	1034.8	181.04	446.52	377.34	689.72	167.48	437.26	578.6	163.12	374.23	599.96	184.85	440.49	665.3	140.32	404.56	502.45	176.49	435.8	512.95	306.94	324.66	381.68	172.59	365.38	279.95	188.26	306.88	307.47	183.57	382.76	355.54	178.35	278.6	110.64	216.04	292.92	103.17	309.19	202.02	77.735	267.53	212.6	50.898	299.33	200.94	51.073	238.53	373.06	42.554	182.01	412.22	37.225	290.63	463.49	50.428	230.97	420.74	1470.7	326.45	368.41	1206.1	297.54
407	1.6917	638.98	1174.7	314.23	491.96	1414.9	475.22	509.16	1427.5	159.92	539.91	1726	322.75	594.81	1005.6	414.65	576.87	1013.3	170.41	367.38	1024.4	352.78	369.85	1037.9	264.06	521.71	914.33	490.55	489.87	928.57	104.83	504.1	1079.9	465.8	474.06	1110.5	145.48	349.24	997.2	301.93	597.18	674.14	476.49	699.13	602.89	440.45	622.38	585.6	451.81	667.76	685.45	464.49	701.26	530.74	438.49	701.97	515.13	309.67	708.84	346.81	446.24	797.82	323.88	446.16	742.9	277.65	438.76	759.48	387.39	453.06	860.97	120.56	434.07	890.7	149.81	351.43	824.8	70.945	371.64	855.86	52.201	345.68	838.34	43.75	407.12	971.02	111.48	487.32	1022.2	150.89	393.77	1045	185.19	444.84	381.04	689.64	167.92	440.29	578.17	163.17	377.47	599.86	185.16	443.92	664.9	140.46	407.31	502.15	176.59	439.06	512.37	306.9	326.79	381.83	172.69	366.89	279.83	188.28	308.55	307.72	183.68	384.74	355.31	178.38	278.99	110.99	216.14	293.34	103.45	309.26	202.18	78.04	267.65	212.73	51.167	299.44	201.04	51.401	238.64	373.12	42.51	182.04	412.33	37.134	290.58	463.66	50.119	230.91	426	1469.7	326.65	373.78	1205	297.96
408	1.6958	644.42	1173.8	314.43	497.27	1414	475.47	514.38	1426.5	160.11	545.06	1725.1	322.9	600.62	1004.4	414.69	581.89	1012.4	170.47	373.02	1023.3	353.61	375.2	1037	264.9	527.67	913.06	490.75	494.4	927.91	105.03	510.07	1078.7	466.2	479.11	1109.6	146	354.65	996.29	302.79	602.07	672.8	476.42	703.73	601.21	440.19	626.92	584.18	451.6	672.68	683.87	464.32	706.02	529.79	438.23	705.68	513.71	309.05	716.13	346.08	446.45	805.44	324.25	445.73	751.05	277.28	438.87	766.35	387.34	452.7	871.35	121.45	433.75	900.1	150.94	350.89	835.42	71.051	371.81	866.59	52.687	345.67	849.6	44.138	407.25	981.94	114.14	486.37	1031.8	154.06	392.34	1054.5	188.89	443.11	384.81	689.52	168.36	443.4	577.71	163.24	380.79	599.73	185.48	447.42	664.47	140.61	410.16	501.82	176.7	442.4	511.75	306.87	328.99	381.97	172.79	368.45	279.71	188.31	310.29	307.98	183.79	386.79	355.07	178.43	279.4	111.37	216.24	293.77	103.76	309.33	202.35	78.383	267.76	212.86	51.478	299.55	201.15	51.763	238.74	373.19	42.467	182.07	412.45	37.046	290.53	463.83	49.806	230.85	431.27	1468.7	326.87	379.18	1203.9	298.4
409	1.7	649.88	1172.9	314.63	502.6	1413.1	475.73	519.6	1425.4	160.32	550.21	1724.1	323.05	606.44	1003.2	414.72	586.93	1011.5	170.52	378.66	1022.3	354.44	380.57	1036.1	265.74	533.66	911.85	490.99	498.97	927.23	105.24	516.06	1077.6	466.6	484.16	1108.8	146.52	360.08	995.37	303.67	607.16	671.57	476.38	708.54	599.71	439.93	631.7	582.89	451.43	677.77	682.44	464.16	711	528.94	437.96	709.58	512.4	308.49	723.26	345.4	446.64	812.82	324.51	445.27	758.91	276.93	438.96	773.13	387.23	452.33	881.08	122.19	433.35	908.91	151.87	350.28	845.33	71.098	371.86	876.57	53.07	345.55	860.09	44.441	407.27	992.16	116.43	485.34	1040.9	156.78	390.87	1063.5	192.08	441.37	388.65	689.36	168.81	446.59	577.22	163.33	384.2	599.57	185.82	451	664.01	140.78	413.09	501.47	176.84	445.81	511.11	306.87	331.28	382.1	172.91	370.07	279.57	188.37	312.09	308.23	183.92	388.91	354.82	178.5	279.82	111.77	216.33	294.21	104.08	309.39	202.53	78.768	267.86	212.99	51.834	299.64	201.27	52.162	238.83	373.25	42.425	182.09	412.57	36.963	290.48	464	49.491	230.79	436.55	1467.7	327.11	384.59	1202.7	298.86
